<?xml version="1.0" standalone="no"?>
<!DOCTYPE svg PUBLIC "-//W3C//DTD SVG 20010904//EN"
 "http://www.w3.org/TR/2001/REC-SVG-20010904/DTD/svg10.dtd">
<svg version="1.0" xmlns="http://www.w3.org/2000/svg"
 width="1280.000000pt" height="1280.000000pt" viewBox="0 0 1280.000000 1280.000000"
 preserveAspectRatio="xMidYMid meet">
<metadata>
Created by potrace 1.14, written by Peter Selinger 2001-2017
</metadata>
<g transform="translate(0.000000,1280.000000) scale(0.100000,-0.100000)"
fill="#000000" stroke="none">
<path d="M6560 12797 c-3 -3 -50 -7 -105 -11 -100 -6 -133 -10 -190 -23 -16
-4 -33 -6 -37 -5 -3 1 -32 -28 -64 -63 -31 -36 -61 -65 -66 -65 -21 0 -156
-102 -193 -146 -66 -78 -152 -201 -179 -257 -25 -51 -73 -207 -80 -257 -2 -14
-9 -47 -15 -75 -33 -138 -33 -513 -1 -625 7 -25 6 -30 -8 -31 -9 0 -24 -2 -32
-3 -8 -2 -40 -6 -70 -9 -70 -8 -98 -17 -190 -58 -196 -88 -387 -198 -471 -271
-15 -13 -39 -34 -55 -48 -16 -14 -55 -57 -87 -97 -31 -39 -73 -89 -92 -110
-58 -62 -152 -265 -136 -292 6 -9 -31 -22 -72 -27 -65 -8 -78 -11 -137 -31
-139 -49 -184 -108 -183 -243 0 -64 5 -87 37 -158 20 -46 36 -85 36 -87 0 -3
-14 -12 -30 -20 -36 -19 -116 -96 -149 -146 -13 -19 -49 -50 -80 -68 -76 -43
-115 -79 -140 -127 -12 -21 -48 -68 -82 -104 -33 -35 -70 -86 -81 -112 -11
-26 -24 -48 -28 -48 -18 0 -42 56 -46 104 -5 62 -11 98 -24 151 -6 22 -13 50
-15 62 -9 39 -46 117 -71 151 -38 49 -90 71 -204 87 -14 1 -41 6 -60 10 -63
11 -364 14 -377 3 -7 -6 -13 -25 -13 -42 0 -90 72 -192 204 -288 39 -29 77
-57 84 -63 8 -5 48 -42 90 -81 115 -106 141 -126 280 -208 34 -21 62 -40 62
-44 0 -4 -30 -45 -67 -91 -72 -91 -74 -98 -58 -216 7 -50 7 -51 -57 -140 -85
-118 -91 -131 -93 -190 -1 -27 -6 -79 -10 -115 -5 -36 -9 -92 -9 -126 l-1 -60
-27 10 c-33 12 -58 -5 -58 -43 0 -37 24 -68 64 -81 26 -8 35 -18 40 -42 9 -48
8 -53 -25 -88 -28 -28 -30 -34 -15 -42 10 -5 23 -5 35 2 47 25 69 6 126 -103
11 -21 30 -49 42 -64 l23 -26 -37 -26 c-21 -14 -58 -36 -81 -48 -24 -13 -51
-30 -59 -38 -32 -32 -80 -63 -115 -75 -21 -6 -38 -12 -38 -13 -10 -44 -8 -81
4 -111 8 -20 19 -36 23 -37 75 -8 79 -7 106 18 19 19 27 37 27 61 0 18 6 39
13 46 25 25 225 118 266 123 36 5 42 3 52 -20 6 -13 21 -29 33 -34 22 -10 79
-10 112 1 23 7 51 51 58 90 3 16 8 31 11 34 16 16 133 3 186 -21 48 -22 70
-25 147 -24 73 1 98 -3 133 -20 67 -32 107 -48 194 -77 44 -15 89 -31 100 -36
11 -5 65 -25 120 -45 55 -21 119 -46 143 -56 l43 -19 -24 -23 c-74 -70 -159
-218 -162 -281 -1 -32 -13 -60 -43 -107 -41 -63 -129 -204 -165 -264 -27 -45
-156 -315 -177 -370 -5 -11 -21 -49 -38 -85 -47 -102 -52 -123 -41 -155 4 -13
0 -34 -11 -55 -14 -26 -15 -41 -8 -68 9 -31 7 -37 -21 -66 -30 -31 -42 -78
-22 -90 15 -10 32 -134 30 -226 -2 -171 1 -224 19 -315 28 -138 28 -138 52
-192 12 -26 37 -88 55 -138 18 -49 45 -121 59 -158 14 -37 26 -77 26 -87 0
-11 -13 -57 -28 -103 -15 -45 -27 -95 -26 -112 2 -57 20 -172 35 -229 11 -39
59 -97 92 -109 18 -7 19 -20 18 -206 0 -51 -3 -102 -6 -112 -4 -11 -25 -32
-48 -48 -47 -32 -192 -176 -233 -231 -113 -152 -198 -342 -209 -469 -3 -34 -6
-65 -7 -69 -7 -31 49 -165 80 -194 69 -61 207 -87 372 -67 89 10 205 73 270
146 67 75 76 89 96 136 20 48 34 60 35 30 3 -103 12 -122 51 -123 33 0 67 -23
73 -49 8 -40 15 -106 30 -279 4 -40 18 -112 31 -160 37 -129 40 -141 55 -221
6 -29 15 -65 21 -80 5 -14 11 -33 13 -42 2 -9 26 -81 54 -160 27 -79 59 -176
71 -215 29 -103 54 -128 146 -149 48 -10 209 -56 213 -61 2 -2 6 -31 7 -64 1
-36 11 -81 24 -112 21 -50 23 -68 26 -338 2 -157 5 -303 7 -325 2 -22 7 -71
11 -110 19 -184 107 -339 222 -393 27 -13 57 -28 68 -34 20 -10 32 -13 140
-32 65 -11 323 -15 356 -5 31 10 157 90 183 117 14 15 28 38 31 52 3 14 19 79
36 145 27 103 32 142 35 275 4 163 12 318 20 385 3 22 5 43 5 48 -1 20 34 69
67 94 21 15 106 83 191 151 84 67 161 126 170 131 9 5 66 23 127 41 160 47
179 62 256 215 34 67 64 112 92 137 23 21 61 54 84 75 71 63 108 123 153 243
73 196 87 234 99 262 l10 28 38 -26 c38 -26 75 -44 103 -50 37 -9 205 -15 235
-10 49 10 147 91 205 170 42 57 56 86 75 156 1 3 7 25 14 50 12 42 10 307 -3
380 -3 14 -7 47 -11 74 -3 27 -8 53 -11 58 -3 4 -7 16 -9 25 -2 10 -11 45 -20
78 -9 33 -19 70 -21 83 -7 37 -35 114 -56 156 -19 37 -22 65 -19 149 1 31 9
47 45 83 25 25 52 64 62 91 9 27 30 82 46 123 43 110 57 179 53 270 l-4 80 41
21 c23 12 47 26 55 33 7 6 19 17 28 24 18 16 19 61 1 85 -14 18 -61 23 -71 7
-9 -15 -48 -12 -42 3 2 6 -2 29 -11 50 -14 36 -13 42 26 160 44 134 67 239 79
362 10 104 9 269 -1 320 -5 22 -9 74 -10 115 -2 41 -10 95 -19 119 -10 24 -17
54 -17 67 0 13 -9 48 -20 78 -17 44 -20 69 -15 126 4 59 2 75 -14 98 -10 15
-22 50 -25 78 -4 28 -15 69 -26 92 -11 23 -26 65 -34 94 -67 251 -170 495
-291 688 -37 60 -40 70 -40 135 l0 70 -87 88 -87 87 27 14 c48 26 77 61 106
129 16 37 31 67 35 68 3 0 14 2 25 4 24 5 303 18 336 16 14 0 30 -7 35 -14 21
-26 65 -39 138 -41 77 -2 89 -6 93 -30 9 -60 48 -93 112 -93 23 0 45 3 48 8 9
15 37 10 58 -10 23 -21 34 -24 82 -22 29 1 52 16 77 54 11 16 15 17 43 3 17
-9 50 -36 73 -61 49 -52 90 -59 135 -24 21 16 26 29 26 62 -1 58 -36 97 -89
97 -25 0 -25 -2 -5 46 20 47 25 68 29 119 1 22 3 43 4 48 1 4 10 7 21 7 12 0
25 10 32 25 9 19 19 25 43 25 44 0 57 20 62 94 5 71 -5 87 -56 88 -17 1 -31 4
-32 7 0 3 -2 15 -4 26 -2 11 3 27 11 36 19 21 17 98 -4 149 -10 25 -12 53 -6
110 4 41 7 79 5 84 -3 13 0 214 4 266 2 25 6 99 10 165 3 65 8 122 10 125 7
11 7 103 0 163 -4 31 -3 57 2 57 4 0 21 11 37 25 16 14 32 25 36 25 3 0 15 8
26 18 10 9 46 37 79 62 33 24 69 51 80 60 58 44 143 142 149 171 10 49 7 76
-8 88 -13 11 -256 15 -361 6 -109 -10 -264 -38 -295 -55 -13 -7 -24 -1 -47 23
-16 18 -43 39 -59 47 -128 64 -167 108 -205 225 -12 39 -28 84 -35 100 -7 17
-20 55 -29 85 -40 136 -50 164 -74 195 -24 31 -99 86 -124 92 -7 1 -24 4 -39
8 -14 3 -51 19 -81 36 -44 26 -59 42 -82 88 -58 117 -121 198 -258 333 -213
211 -287 270 -377 299 -19 6 -62 24 -95 40 -145 67 -198 88 -243 95 -26 5 -50
9 -54 10 -5 1 -13 2 -19 3 -6 0 -8 10 -4 20 12 38 34 152 41 216 12 97 7 405
-7 483 -17 86 -82 273 -116 330 -110 184 -290 370 -402 418 -72 31 -197 74
-256 87 -58 13 -225 23 -235 14z m-1354 -3204 c-2 -10 1 -31 5 -48 4 -16 10
-52 13 -80 7 -54 16 -121 22 -145 1 -8 8 -42 15 -75 7 -33 23 -85 36 -115 59
-134 80 -224 98 -420 12 -138 15 -161 36 -278 6 -35 10 -65 8 -67 -4 -3 -65
-12 -199 -31 -25 -3 -61 -13 -80 -22 -41 -20 -46 -39 -45 -169 0 -46 -3 -83
-6 -83 -19 0 -30 32 -43 120 -10 62 -15 83 -25 93 -12 12 -189 13 -346 2 -60
-4 -136 -7 -167 -7 -43 0 -64 -4 -83 -20 l-26 -21 -32 31 c-18 16 -41 33 -53
36 -16 5 -23 21 -34 84 -7 42 -15 82 -16 87 -2 6 -5 20 -8 33 -10 44 -19 67
-41 103 l-23 35 29 39 c16 21 66 75 111 120 153 152 263 270 302 325 22 30 53
68 70 84 177 165 214 196 238 196 24 0 98 74 96 95 -5 65 44 115 114 115 29 0
36 -4 34 -17z m2840 -170 c19 -21 45 -55 56 -75 12 -21 24 -39 27 -39 3 -1 29
-3 56 -4 28 -2 58 -3 67 -4 10 0 25 -16 34 -33 10 -18 48 -62 85 -98 140 -135
186 -177 239 -220 30 -24 69 -57 85 -73 33 -33 66 -95 58 -111 -2 -6 -34 -33
-71 -59 -277 -200 -277 -200 -288 -316 -3 -31 -7 -69 -9 -86 -2 -16 -4 -33 -4
-37 -1 -5 -16 -8 -35 -8 -32 0 -35 -4 -92 -106 l-58 -107 -13 37 c-27 81 -81
116 -125 83 -15 -12 -155 -13 -167 -2 -8 8 -6 388 3 475 4 47 9 130 11 185 2
67 10 120 23 162 12 34 25 95 31 135 6 40 13 84 16 98 3 14 8 54 11 90 4 36 8
72 10 80 1 8 3 27 3 43 1 15 3 27 6 27 3 0 21 -17 41 -37z m770 -801 c39 -35
62 -124 65 -257 1 -71 -9 -90 -99 -178 l-79 -78 -56 27 c-38 19 -58 35 -62 51
-3 15 -13 23 -28 24 -12 1 -26 2 -32 4 -5 1 -17 3 -26 3 -32 4 -4 213 35 254
46 48 226 178 246 178 3 0 19 -12 36 -28z m-4663 -159 c24 -53 38 -115 53
-230 l6 -43 -46 -1 c-103 -3 -100 -4 -123 39 -12 20 -33 48 -47 61 -14 14 -26
31 -26 39 0 24 132 192 150 192 4 0 19 -26 33 -57z m3380 -6179 c-21 -33 -41
-63 -46 -69 -4 -5 -29 -39 -56 -75 -68 -92 -187 -201 -214 -196 -20 3 -22 9
-21 72 2 96 12 227 19 246 10 25 60 33 87 14 31 -22 52 -20 98 9 22 14 49 25
60 25 12 0 38 11 58 25 53 36 60 16 15 -51z m-2054 -201 c1 -65 -1 -95 -8 -88
-38 38 -140 169 -136 175 3 4 35 8 73 9 l68 1 3 -97z"/>
</g>
</svg>
